<svg width="200" height="200" viewBox="0 0 200 200" xmlns="http://www.w3.org/2000/svg">
  <!-- Cat Body -->
  <ellipse cx="100" cy="130" rx="50" ry="40" fill="#FF8C69" stroke="#FF6347" stroke-width="2"/>

  <!-- Cat Head -->
  <circle cx="100" cy="80" r="35" fill="#FF8C69" stroke="#FF6347" stroke-width="2"/>

  <!-- Cat Ears -->
  <path d="M75 60 L85 45 L95 60 Z" fill="#FF8C69" stroke="#FF6347" stroke-width="2"/>
  <path d="M105 60 L115 45 L125 60 Z" fill="#FF8C69" stroke="#FF6347" stroke-width="2"/>

  <!-- Inner Ears -->
  <path d="M80 55 L85 48 L90 55 Z" fill="#FFB6C1"/>
  <path d="M110 55 L115 48 L120 55 Z" fill="#FFB6C1"/>

  <!-- Cat Eyes -->
  <ellipse cx="90" cy="75" rx="8" ry="10" fill="#000"/>
  <ellipse cx="110" cy="75" rx="8" ry="10" fill="#000"/>

  <!-- Eye highlights -->
  <ellipse cx="92" cy="72" rx="2" ry="3" fill="#FFF"/>
  <ellipse cx="112" cy="72" rx="2" ry="3" fill="#FFF"/>

  <!-- Cat Nose -->
  <path d="M95 85 L100 88 L105 85 L100 90 Z" fill="#FF1493"/>

  <!-- Cat Mouth -->
  <path d="M100 90 Q95 95 90 92" stroke="#FF1493" stroke-width="2" fill="none"/>
  <path d="M100 90 Q105 95 110 92" stroke="#FF1493" stroke-width="2" fill="none"/>

  <!-- Cat Whiskers -->
  <line x1="60" y1="82" x2="85" y2="85" stroke="#000" stroke-width="1.5"/>
  <line x1="60" y1="90" x2="85" y2="88" stroke="#000" stroke-width="1.5"/>
  <line x1="115" y1="85" x2="140" y2="82" stroke="#000" stroke-width="1.5"/>
  <line x1="115" y1="88" x2="140" y2="90" stroke="#000" stroke-width="1.5"/>

  <!-- Cat Legs -->
  <ellipse cx="80" cy="165" rx="8" ry="15" fill="#FF8C69" stroke="#FF6347" stroke-width="2"/>
  <ellipse cx="95" cy="165" rx="8" ry="15" fill="#FF8C69" stroke="#FF6347" stroke-width="2"/>
  <ellipse cx="105" cy="165" rx="8" ry="15" fill="#FF8C69" stroke="#FF6347" stroke-width="2"/>
  <ellipse cx="120" cy="165" rx="8" ry="15" fill="#FF8C69" stroke="#FF6347" stroke-width="2"/>

  <!-- Cat Tail -->
  <path d="M150 130 Q170 120 165 100 Q160 80 175 70" stroke="#FF6347" stroke-width="15" fill="none" stroke-linecap="round"/>

  <!-- Paw Details -->
  <circle cx="80" cy="175" r="6" fill="#FF6347"/>
  <circle cx="95" cy="175" r="6" fill="#FF6347"/>
  <circle cx="105" cy="175" r="6" fill="#FF6347"/>
  <circle cx="120" cy="175" r="6" fill="#FF6347"/>

  <!-- Belly Pattern -->
  <ellipse cx="100" cy="130" rx="25" ry="20" fill="#FFB6C1" opacity="0.6"/>
</svg>